# Tiled2Unity generated file. Do not modify by hand.
# Wavefront file for 'first_map_mesh_0004.obj'

# Vertices (Count = 168)
v -1504 -128 0
v -1520 -128 0
v -1520 -112 0
v -1504 -112 0
v -1472 -128 0
v -1488 -128 0
v -1488 -112 0
v -1472 -112 0
v -1440 -128 0
v -1456 -128 0
v -1456 -112 0
v -1440 -112 0
v -1408 -128 0
v -1424 -128 0
v -1424 -112 0
v -1408 -112 0
v -1376 -128 0
v -1392 -128 0
v -1392 -112 0
v -1376 -112 0
v -1344 -128 0
v -1360 -128 0
v -1360 -112 0
v -1344 -112 0
v -1472 -160 0
v -1488 -160 0
v -1488 -144 0
v -1472 -144 0
v -1440 -160 0
v -1456 -160 0
v -1456 -144 0
v -1440 -144 0
v -1408 -160 0
v -1424 -160 0
v -1424 -144 0
v -1408 -144 0
v -1344 -160 0
v -1360 -160 0
v -1360 -144 0
v -1344 -144 0
v -1472 -192 0
v -1488 -192 0
v -1488 -176 0
v -1472 -176 0
v -1440 -192 0
v -1456 -192 0
v -1456 -176 0
v -1440 -176 0
v -1408 -192 0
v -1424 -192 0
v -1424 -176 0
v -1408 -176 0
v -1344 -192 0
v -1360 -192 0
v -1360 -176 0
v -1344 -176 0
v -1312 -192 0
v -1328 -192 0
v -1328 -176 0
v -1312 -176 0
v -1280 -224 0
v -1296 -224 0
v -1296 -208 0
v -1280 -208 0
v -1152 -480 0
v -1168 -480 0
v -1168 -464 0
v -1152 -464 0
v -1152 -512 0
v -1168 -512 0
v -1168 -496 0
v -1152 -496 0
v -2048 -928 0
v -2064 -928 0
v -2064 -912 0
v -2048 -912 0
v -1792 -928 0
v -1808 -928 0
v -1808 -912 0
v -1792 -912 0
v -2048 -960 0
v -2064 -960 0
v -2064 -944 0
v -2048 -944 0
v -928 -960 0
v -944 -960 0
v -944 -944 0
v -928 -944 0
v -1984 -1024 0
v -2000 -1024 0
v -2000 -1008 0
v -1984 -1008 0
v -1952 -1024 0
v -1968 -1024 0
v -1968 -1008 0
v -1952 -1008 0
v -896 -1024 0
v -912 -1024 0
v -912 -1008 0
v -896 -1008 0
v -1984 -1056 0
v -2000 -1056 0
v -2000 -1040 0
v -1984 -1040 0
v -1952 -1056 0
v -1968 -1056 0
v -1968 -1040 0
v -1952 -1040 0
v -864 -1056 0
v -880 -1056 0
v -880 -1040 0
v -864 -1040 0
v -2048 -1184 0
v -2064 -1184 0
v -2064 -1168 0
v -2048 -1168 0
v -2016 -1184 0
v -2032 -1184 0
v -2032 -1168 0
v -2016 -1168 0
v -2048 -1216 0
v -2064 -1216 0
v -2064 -1200 0
v -2048 -1200 0
v -1632 -1216 0
v -1648 -1216 0
v -1648 -1200 0
v -1632 -1200 0
v -2048 -1248 0
v -2064 -1248 0
v -2064 -1232 0
v -2048 -1232 0
v -1536 -1248 0
v -1552 -1248 0
v -1552 -1232 0
v -1536 -1232 0
v -2048 -1280 0
v -2064 -1280 0
v -2064 -1264 0
v -2048 -1264 0
v -416 -1280 0
v -432 -1280 0
v -432 -1264 0
v -416 -1264 0
v -1344 -1408 0
v -1360 -1408 0
v -1360 -1392 0
v -1344 -1392 0
v -2176 -1440 0
v -2192 -1440 0
v -2192 -1424 0
v -2176 -1424 0
v -2272 -1536 0
v -2288 -1536 0
v -2288 -1520 0
v -2272 -1520 0
v -1408 -1632 0
v -1424 -1632 0
v -1424 -1616 0
v -1408 -1616 0
v -1120 -2048 0
v -1136 -2048 0
v -1136 -2032 0
v -1120 -2032 0
v -2240 -2208 0
v -2256 -2208 0
v -2256 -2192 0
v -2240 -2192 0

# Texture cooridinates (Count = 4)
vt 0 0
vt 1 0
vt 1 1
vt 0 1

# Normal
vn 0 0 -1

# Mesh description
g first_map_mesh_0004

# Faces
f 1/1/1 2/2/1 3/3/1 4/4/1
f 5/1/1 6/2/1 7/3/1 8/4/1
f 9/1/1 10/2/1 11/3/1 12/4/1
f 13/1/1 14/2/1 15/3/1 16/4/1
f 17/1/1 18/2/1 19/3/1 20/4/1
f 21/1/1 22/2/1 23/3/1 24/4/1
f 25/1/1 26/2/1 27/3/1 28/4/1
f 29/1/1 30/2/1 31/3/1 32/4/1
f 33/1/1 34/2/1 35/3/1 36/4/1
f 37/1/1 38/2/1 39/3/1 40/4/1
f 41/1/1 42/2/1 43/3/1 44/4/1
f 45/1/1 46/2/1 47/3/1 48/4/1
f 49/1/1 50/2/1 51/3/1 52/4/1
f 53/1/1 54/2/1 55/3/1 56/4/1
f 57/1/1 58/2/1 59/3/1 60/4/1
f 61/1/1 62/2/1 63/3/1 64/4/1
f 65/1/1 66/2/1 67/3/1 68/4/1
f 69/1/1 70/2/1 71/3/1 72/4/1
f 73/1/1 74/2/1 75/3/1 76/4/1
f 77/1/1 78/2/1 79/3/1 80/4/1
f 81/1/1 82/2/1 83/3/1 84/4/1
f 85/1/1 86/2/1 87/3/1 88/4/1
f 89/1/1 90/2/1 91/3/1 92/4/1
f 93/1/1 94/2/1 95/3/1 96/4/1
f 97/1/1 98/2/1 99/3/1 100/4/1
f 101/1/1 102/2/1 103/3/1 104/4/1
f 105/1/1 106/2/1 107/3/1 108/4/1
f 109/1/1 110/2/1 111/3/1 112/4/1
f 113/1/1 114/2/1 115/3/1 116/4/1
f 117/1/1 118/2/1 119/3/1 120/4/1
f 121/1/1 122/2/1 123/3/1 124/4/1
f 125/1/1 126/2/1 127/3/1 128/4/1
f 129/1/1 130/2/1 131/3/1 132/4/1
f 133/1/1 134/2/1 135/3/1 136/4/1
f 137/1/1 138/2/1 139/3/1 140/4/1
f 141/1/1 142/2/1 143/3/1 144/4/1
f 145/1/1 146/2/1 147/3/1 148/4/1
f 149/1/1 150/2/1 151/3/1 152/4/1
f 153/1/1 154/2/1 155/3/1 156/4/1
f 157/1/1 158/2/1 159/3/1 160/4/1
f 161/1/1 162/2/1 163/3/1 164/4/1
f 165/1/1 166/2/1 167/3/1 168/4/1

