# Tiled2Unity generated file. Do not modify by hand.
# Wavefront file for 'Town_mesh_0006.obj'

# Vertices (Count = 516)
v -1248 -32 0
v -1280 -32 0
v -1280 0 0
v -1248 0 0
v -1216 -32 0
v -1248 -32 0
v -1248 0 0
v -1216 0 0
v -1184 -32 0
v -1216 -32 0
v -1216 0 0
v -1184 0 0
v -64 -32 0
v -96 -32 0
v -96 0 0
v -64 0 0
v -32 -32 0
v -64 -32 0
v -64 0 0
v -32 0 0
v 0 -32 0
v -32 -32 0
v -32 0 0
v 0 0 0
v -1248 -64 0
v -1280 -64 0
v -1280 -32 0
v -1248 -32 0
v -1216 -64 0
v -1248 -64 0
v -1248 -32 0
v -1216 -32 0
v -1184 -64 0
v -1216 -64 0
v -1216 -32 0
v -1184 -32 0
v -64 -64 0
v -96 -64 0
v -96 -32 0
v -64 -32 0
v -32 -64 0
v -64 -64 0
v -64 -32 0
v -32 -32 0
v 0 -64 0
v -32 -64 0
v -32 -32 0
v 0 -32 0
v -1248 -96 0
v -1280 -96 0
v -1280 -64 0
v -1248 -64 0
v -1216 -96 0
v -1248 -96 0
v -1248 -64 0
v -1216 -64 0
v -1184 -96 0
v -1216 -96 0
v -1216 -64 0
v -1184 -64 0
v -1152 -96 0
v -1184 -96 0
v -1184 -64 0
v -1152 -64 0
v -1120 -96 0
v -1152 -96 0
v -1152 -64 0
v -1120 -64 0
v -1088 -96 0
v -1120 -96 0
v -1120 -64 0
v -1088 -64 0
v -64 -96 0
v -96 -96 0
v -96 -64 0
v -64 -64 0
v -32 -96 0
v -64 -96 0
v -64 -64 0
v -32 -64 0
v 0 -96 0
v -32 -96 0
v -32 -64 0
v 0 -64 0
v -1248 -128 0
v -1280 -128 0
v -1280 -96 0
v -1248 -96 0
v -1216 -128 0
v -1248 -128 0
v -1248 -96 0
v -1216 -96 0
v -1184 -128 0
v -1216 -128 0
v -1216 -96 0
v -1184 -96 0
v -1152 -128 0
v -1184 -128 0
v -1184 -96 0
v -1152 -96 0
v -1120 -128 0
v -1152 -128 0
v -1152 -96 0
v -1120 -96 0
v -1088 -128 0
v -1120 -128 0
v -1120 -96 0
v -1088 -96 0
v -64 -128 0
v -96 -128 0
v -96 -96 0
v -64 -96 0
v -32 -128 0
v -64 -128 0
v -64 -96 0
v -32 -96 0
v 0 -128 0
v -32 -128 0
v -32 -96 0
v 0 -96 0
v -1248 -160 0
v -1280 -160 0
v -1280 -128 0
v -1248 -128 0
v -1216 -160 0
v -1248 -160 0
v -1248 -128 0
v -1216 -128 0
v -1184 -160 0
v -1216 -160 0
v -1216 -128 0
v -1184 -128 0
v -64 -160 0
v -96 -160 0
v -96 -128 0
v -64 -128 0
v -32 -160 0
v -64 -160 0
v -64 -128 0
v -32 -128 0
v 0 -160 0
v -32 -160 0
v -32 -128 0
v 0 -128 0
v -1248 -192 0
v -1280 -192 0
v -1280 -160 0
v -1248 -160 0
v -1216 -192 0
v -1248 -192 0
v -1248 -160 0
v -1216 -160 0
v -1184 -192 0
v -1216 -192 0
v -1216 -160 0
v -1184 -160 0
v -64 -192 0
v -96 -192 0
v -96 -160 0
v -64 -160 0
v -32 -192 0
v -64 -192 0
v -64 -160 0
v -32 -160 0
v 0 -192 0
v -32 -192 0
v -32 -160 0
v 0 -160 0
v -1248 -224 0
v -1280 -224 0
v -1280 -192 0
v -1248 -192 0
v -1216 -224 0
v -1248 -224 0
v -1248 -192 0
v -1216 -192 0
v -1184 -224 0
v -1216 -224 0
v -1216 -192 0
v -1184 -192 0
v -64 -224 0
v -96 -224 0
v -96 -192 0
v -64 -192 0
v -32 -224 0
v -64 -224 0
v -64 -192 0
v -32 -192 0
v 0 -224 0
v -32 -224 0
v -32 -192 0
v 0 -192 0
v -1248 -256 0
v -1280 -256 0
v -1280 -224 0
v -1248 -224 0
v -1216 -256 0
v -1248 -256 0
v -1248 -224 0
v -1216 -224 0
v -1184 -256 0
v -1216 -256 0
v -1216 -224 0
v -1184 -224 0
v -64 -256 0
v -96 -256 0
v -96 -224 0
v -64 -224 0
v -32 -256 0
v -64 -256 0
v -64 -224 0
v -32 -224 0
v 0 -256 0
v -32 -256 0
v -32 -224 0
v 0 -224 0
v -1248 -288 0
v -1280 -288 0
v -1280 -256 0
v -1248 -256 0
v -1216 -288 0
v -1248 -288 0
v -1248 -256 0
v -1216 -256 0
v -1184 -288 0
v -1216 -288 0
v -1216 -256 0
v -1184 -256 0
v -64 -288 0
v -96 -288 0
v -96 -256 0
v -64 -256 0
v -32 -288 0
v -64 -288 0
v -64 -256 0
v -32 -256 0
v 0 -288 0
v -32 -288 0
v -32 -256 0
v 0 -256 0
v -1248 -320 0
v -1280 -320 0
v -1280 -288 0
v -1248 -288 0
v -1216 -320 0
v -1248 -320 0
v -1248 -288 0
v -1216 -288 0
v -1184 -320 0
v -1216 -320 0
v -1216 -288 0
v -1184 -288 0
v -64 -320 0
v -96 -320 0
v -96 -288 0
v -64 -288 0
v -32 -320 0
v -64 -320 0
v -64 -288 0
v -32 -288 0
v 0 -320 0
v -32 -320 0
v -32 -288 0
v 0 -288 0
v -1248 -352 0
v -1280 -352 0
v -1280 -320 0
v -1248 -320 0
v -1216 -352 0
v -1248 -352 0
v -1248 -320 0
v -1216 -320 0
v -1184 -352 0
v -1216 -352 0
v -1216 -320 0
v -1184 -320 0
v -64 -352 0
v -96 -352 0
v -96 -320 0
v -64 -320 0
v -32 -352 0
v -64 -352 0
v -64 -320 0
v -32 -320 0
v 0 -352 0
v -32 -352 0
v -32 -320 0
v 0 -320 0
v -1248 -384 0
v -1280 -384 0
v -1280 -352 0
v -1248 -352 0
v -1216 -384 0
v -1248 -384 0
v -1248 -352 0
v -1216 -352 0
v -1184 -384 0
v -1216 -384 0
v -1216 -352 0
v -1184 -352 0
v -32 -384 0
v -64 -384 0
v -64 -352 0
v -32 -352 0
v 0 -384 0
v -32 -384 0
v -32 -352 0
v 0 -352 0
v -1248 -416 0
v -1280 -416 0
v -1280 -384 0
v -1248 -384 0
v -1216 -416 0
v -1248 -416 0
v -1248 -384 0
v -1216 -384 0
v -1184 -416 0
v -1216 -416 0
v -1216 -384 0
v -1184 -384 0
v -1248 -448 0
v -1280 -448 0
v -1280 -416 0
v -1248 -416 0
v -1216 -448 0
v -1248 -448 0
v -1248 -416 0
v -1216 -416 0
v -1184 -448 0
v -1216 -448 0
v -1216 -416 0
v -1184 -416 0
v -1248 -480 0
v -1280 -480 0
v -1280 -448 0
v -1248 -448 0
v -1216 -480 0
v -1248 -480 0
v -1248 -448 0
v -1216 -448 0
v -1184 -480 0
v -1216 -480 0
v -1216 -448 0
v -1184 -448 0
v -1248 -512 0
v -1280 -512 0
v -1280 -480 0
v -1248 -480 0
v -1216 -512 0
v -1248 -512 0
v -1248 -480 0
v -1216 -480 0
v -1184 -512 0
v -1216 -512 0
v -1216 -480 0
v -1184 -480 0
v -1248 -544 0
v -1280 -544 0
v -1280 -512 0
v -1248 -512 0
v -1216 -544 0
v -1248 -544 0
v -1248 -512 0
v -1216 -512 0
v -1184 -544 0
v -1216 -544 0
v -1216 -512 0
v -1184 -512 0
v -1248 -576 0
v -1280 -576 0
v -1280 -544 0
v -1248 -544 0
v -1216 -576 0
v -1248 -576 0
v -1248 -544 0
v -1216 -544 0
v -1184 -576 0
v -1216 -576 0
v -1216 -544 0
v -1184 -544 0
v -1248 -608 0
v -1280 -608 0
v -1280 -576 0
v -1248 -576 0
v -1216 -608 0
v -1248 -608 0
v -1248 -576 0
v -1216 -576 0
v -1184 -608 0
v -1216 -608 0
v -1216 -576 0
v -1184 -576 0
v -1248 -640 0
v -1280 -640 0
v -1280 -608 0
v -1248 -608 0
v -1216 -640 0
v -1248 -640 0
v -1248 -608 0
v -1216 -608 0
v -1184 -640 0
v -1216 -640 0
v -1216 -608 0
v -1184 -608 0
v -1248 -672 0
v -1280 -672 0
v -1280 -640 0
v -1248 -640 0
v -1216 -672 0
v -1248 -672 0
v -1248 -640 0
v -1216 -640 0
v -1184 -672 0
v -1216 -672 0
v -1216 -640 0
v -1184 -640 0
v -1248 -704 0
v -1280 -704 0
v -1280 -672 0
v -1248 -672 0
v -1216 -704 0
v -1248 -704 0
v -1248 -672 0
v -1216 -672 0
v -1184 -704 0
v -1216 -704 0
v -1216 -672 0
v -1184 -672 0
v -1248 -736 0
v -1280 -736 0
v -1280 -704 0
v -1248 -704 0
v -1216 -736 0
v -1248 -736 0
v -1248 -704 0
v -1216 -704 0
v -1184 -736 0
v -1216 -736 0
v -1216 -704 0
v -1184 -704 0
v -1248 -768 0
v -1280 -768 0
v -1280 -736 0
v -1248 -736 0
v -1216 -768 0
v -1248 -768 0
v -1248 -736 0
v -1216 -736 0
v -1184 -768 0
v -1216 -768 0
v -1216 -736 0
v -1184 -736 0
v -672 -768 0
v -704 -768 0
v -704 -736 0
v -672 -736 0
v -544 -768 0
v -576 -768 0
v -576 -736 0
v -544 -736 0
v -1248 -800 0
v -1280 -800 0
v -1280 -768 0
v -1248 -768 0
v -1216 -800 0
v -1248 -800 0
v -1248 -768 0
v -1216 -768 0
v -1184 -800 0
v -1216 -800 0
v -1216 -768 0
v -1184 -768 0
v -672 -800 0
v -704 -800 0
v -704 -768 0
v -672 -768 0
v -544 -800 0
v -576 -800 0
v -576 -768 0
v -544 -768 0
v -1248 -832 0
v -1280 -832 0
v -1280 -800 0
v -1248 -800 0
v -1216 -832 0
v -1248 -832 0
v -1248 -800 0
v -1216 -800 0
v -1184 -832 0
v -1216 -832 0
v -1216 -800 0
v -1184 -800 0
v -1248 -864 0
v -1280 -864 0
v -1280 -832 0
v -1248 -832 0
v -1216 -864 0
v -1248 -864 0
v -1248 -832 0
v -1216 -832 0
v -1184 -864 0
v -1216 -864 0
v -1216 -832 0
v -1184 -832 0
v -1248 -896 0
v -1280 -896 0
v -1280 -864 0
v -1248 -864 0
v -1216 -896 0
v -1248 -896 0
v -1248 -864 0
v -1216 -864 0
v -1184 -896 0
v -1216 -896 0
v -1216 -864 0
v -1184 -864 0

# Texture cooridinates (Count = 100)
vt 0.375 0.1875
vt 0.4375 0.1875
vt 0.4375 0.25
vt 0.375 0.25
vt 0.3125 0.1875
vt 0.3125 0.25
vt 0.25 0.1875
vt 0.25 0.25
vt 0.3125 0.9375
vt 0.375 0.9375
vt 0.375 1
vt 0.3125 1
vt 0.25 0.9375
vt 0.25 1
vt 0.1875 0.9375
vt 0.1875 1
vt 0.375 0.125
vt 0.4375 0.125
vt 0.3125 0.125
vt 0.25 0.125
vt 0.3125 0.875
vt 0.375 0.875
vt 0.25 0.875
vt 0.1875 0.875
vt 0.375 0.0625
vt 0.4375 0.0625
vt 0.3125 0.0625
vt 0.25 0.0625
vt 0.4375 0.3125
vt 0.5 0.3125
vt 0.5 0.375
vt 0.4375 0.375
vt 0.3125 0.8125
vt 0.375 0.8125
vt 0.25 0.8125
vt 0.1875 0.8125
vt 0.3125 0.75
vt 0.375 0.75
vt 0.25 0.75
vt 0.1875 0.75
vt 0.3125 0.6875
vt 0.375 0.6875
vt 0.25 0.6875
vt 0.1875 0.6875
vt 0.3125 0.625
vt 0.375 0.625
vt 0.25 0.625
vt 0.1875 0.625
vt 0.25 0.5625
vt 0.3125 0.5625
vt 0.1875 0.5625
vt 0.375 0
vt 0.4375 0
vt 0.3125 0
vt 0.25 0
vt 0.125 0.5
vt 0.1875 0.5
vt 0.125 0.5625
vt 0.0625 0.5
vt 0.0625 0.5625
vt 0 0.5
vt 0 0.5625
vt 0.125 0.4375
vt 0.1875 0.4375
vt 0.0625 0.4375
vt 0 0.4375
vt 0.125 0.375
vt 0.1875 0.375
vt 0.0625 0.375
vt 0 0.375
vt 0.125 0.3125
vt 0.1875 0.3125
vt 0.0625 0.3125
vt 0 0.3125
vt 0.125 0.25
vt 0.1875 0.25
vt 0.0625 0.25
vt 0 0.25
vt 0.8125 0.0625
vt 0.875 0.0625
vt 0.875 0.125
vt 0.8125 0.125
vt 0.125 0.1875
vt 0.1875 0.1875
vt 0.0625 0.1875
vt 0 0.1875
vt 0.8125 0
vt 0.875 0
vt 0.125 0.125
vt 0.1875 0.125
vt 0.0625 0.125
vt 0 0.125
vt 0.125 0.0625
vt 0.1875 0.0625
vt 0.0625 0.0625
vt 0 0.0625
vt 0.125 0
vt 0.1875 0
vt 0.0625 0
vt 0 0

# Normal
vn 0 0 -1

# Mesh description
g Town_mesh_0006

# Faces
f 1/1/1 2/2/1 3/3/1 4/4/1
f 5/5/1 6/1/1 7/4/1 8/6/1
f 9/7/1 10/5/1 11/6/1 12/8/1
f 13/9/1 14/10/1 15/11/1 16/12/1
f 17/13/1 18/9/1 19/12/1 20/14/1
f 21/15/1 22/13/1 23/14/1 24/16/1
f 25/17/1 26/18/1 27/2/1 28/1/1
f 29/19/1 30/17/1 31/1/1 32/5/1
f 33/20/1 34/19/1 35/5/1 36/7/1
f 37/21/1 38/22/1 39/10/1 40/9/1
f 41/23/1 42/21/1 43/9/1 44/13/1
f 45/24/1 46/23/1 47/13/1 48/15/1
f 49/25/1 50/26/1 51/18/1 52/17/1
f 53/27/1 54/25/1 55/17/1 56/19/1
f 57/28/1 58/27/1 59/19/1 60/20/1
f 61/29/1 62/30/1 63/31/1 64/32/1
f 65/29/1 66/30/1 67/31/1 68/32/1
f 69/29/1 70/30/1 71/31/1 72/32/1
f 73/33/1 74/34/1 75/22/1 76/21/1
f 77/35/1 78/33/1 79/21/1 80/23/1
f 81/36/1 82/35/1 83/23/1 84/24/1
f 85/1/1 86/2/1 87/3/1 88/4/1
f 89/5/1 90/1/1 91/4/1 92/6/1
f 93/7/1 94/5/1 95/6/1 96/8/1
f 97/29/1 98/30/1 99/31/1 100/32/1
f 101/29/1 102/30/1 103/31/1 104/32/1
f 105/29/1 106/30/1 107/31/1 108/32/1
f 109/33/1 110/34/1 111/22/1 112/21/1
f 113/35/1 114/33/1 115/21/1 116/23/1
f 117/36/1 118/35/1 119/23/1 120/24/1
f 121/17/1 122/18/1 123/2/1 124/1/1
f 125/19/1 126/17/1 127/1/1 128/5/1
f 129/20/1 130/19/1 131/5/1 132/7/1
f 133/37/1 134/38/1 135/34/1 136/33/1
f 137/39/1 138/37/1 139/33/1 140/35/1
f 141/40/1 142/39/1 143/35/1 144/36/1
f 145/25/1 146/26/1 147/18/1 148/17/1
f 149/27/1 150/25/1 151/17/1 152/19/1
f 153/28/1 154/27/1 155/19/1 156/20/1
f 157/33/1 158/34/1 159/22/1 160/21/1
f 161/35/1 162/33/1 163/21/1 164/23/1
f 165/36/1 166/35/1 167/23/1 168/24/1
f 169/1/1 170/2/1 171/3/1 172/4/1
f 173/5/1 174/1/1 175/4/1 176/6/1
f 177/7/1 178/5/1 179/6/1 180/8/1
f 181/37/1 182/38/1 183/34/1 184/33/1
f 185/39/1 186/37/1 187/33/1 188/35/1
f 189/40/1 190/39/1 191/35/1 192/36/1
f 193/17/1 194/18/1 195/2/1 196/1/1
f 197/19/1 198/17/1 199/1/1 200/5/1
f 201/20/1 202/19/1 203/5/1 204/7/1
f 205/33/1 206/34/1 207/22/1 208/21/1
f 209/35/1 210/33/1 211/21/1 212/23/1
f 213/36/1 214/35/1 215/23/1 216/24/1
f 217/25/1 218/26/1 219/18/1 220/17/1
f 221/27/1 222/25/1 223/17/1 224/19/1
f 225/28/1 226/27/1 227/19/1 228/20/1
f 229/37/1 230/38/1 231/34/1 232/33/1
f 233/39/1 234/37/1 235/33/1 236/35/1
f 237/40/1 238/39/1 239/35/1 240/36/1
f 241/1/1 242/2/1 243/3/1 244/4/1
f 245/5/1 246/1/1 247/4/1 248/6/1
f 249/7/1 250/5/1 251/6/1 252/8/1
f 253/41/1 254/42/1 255/38/1 256/37/1
f 257/43/1 258/41/1 259/37/1 260/39/1
f 261/44/1 262/43/1 263/39/1 264/40/1
f 265/17/1 266/18/1 267/2/1 268/1/1
f 269/19/1 270/17/1 271/1/1 272/5/1
f 273/20/1 274/19/1 275/5/1 276/7/1
f 277/45/1 278/46/1 279/42/1 280/41/1
f 281/47/1 282/45/1 283/41/1 284/43/1
f 285/48/1 286/47/1 287/43/1 288/44/1
f 289/25/1 290/26/1 291/18/1 292/17/1
f 293/27/1 294/25/1 295/17/1 296/19/1
f 297/28/1 298/27/1 299/19/1 300/20/1
f 301/49/1 302/50/1 303/45/1 304/47/1
f 305/51/1 306/49/1 307/47/1 308/48/1
f 309/52/1 310/53/1 311/26/1 312/25/1
f 313/54/1 314/52/1 315/25/1 316/27/1
f 317/55/1 318/54/1 319/27/1 320/28/1
f 321/56/1 322/57/1 323/51/1 324/58/1
f 325/59/1 326/56/1 327/58/1 328/60/1
f 329/61/1 330/59/1 331/60/1 332/62/1
f 333/63/1 334/64/1 335/57/1 336/56/1
f 337/65/1 338/63/1 339/56/1 340/59/1
f 341/66/1 342/65/1 343/59/1 344/61/1
f 345/67/1 346/68/1 347/64/1 348/63/1
f 349/69/1 350/67/1 351/63/1 352/65/1
f 353/70/1 354/69/1 355/65/1 356/66/1
f 357/63/1 358/64/1 359/57/1 360/56/1
f 361/65/1 362/63/1 363/56/1 364/59/1
f 365/66/1 366/65/1 367/59/1 368/61/1
f 369/67/1 370/68/1 371/64/1 372/63/1
f 373/69/1 374/67/1 375/63/1 376/65/1
f 377/70/1 378/69/1 379/65/1 380/66/1
f 381/63/1 382/64/1 383/57/1 384/56/1
f 385/65/1 386/63/1 387/56/1 388/59/1
f 389/66/1 390/65/1 391/59/1 392/61/1
f 393/67/1 394/68/1 395/64/1 396/63/1
f 397/69/1 398/67/1 399/63/1 400/65/1
f 401/70/1 402/69/1 403/65/1 404/66/1
f 405/63/1 406/64/1 407/57/1 408/56/1
f 409/65/1 410/63/1 411/56/1 412/59/1
f 413/66/1 414/65/1 415/59/1 416/61/1
f 417/67/1 418/68/1 419/64/1 420/63/1
f 421/69/1 422/67/1 423/63/1 424/65/1
f 425/70/1 426/69/1 427/65/1 428/66/1
f 429/71/1 430/72/1 431/68/1 432/67/1
f 433/73/1 434/71/1 435/67/1 436/69/1
f 437/74/1 438/73/1 439/69/1 440/70/1
f 441/75/1 442/76/1 443/72/1 444/71/1
f 445/77/1 446/75/1 447/71/1 448/73/1
f 449/78/1 450/77/1 451/73/1 452/74/1
f 453/79/1 454/80/1 455/81/1 456/82/1
f 457/79/1 458/80/1 459/81/1 460/82/1
f 461/83/1 462/84/1 463/76/1 464/75/1
f 465/85/1 466/83/1 467/75/1 468/77/1
f 469/86/1 470/85/1 471/77/1 472/78/1
f 473/87/1 474/88/1 475/80/1 476/79/1
f 477/87/1 478/88/1 479/80/1 480/79/1
f 481/89/1 482/90/1 483/84/1 484/83/1
f 485/91/1 486/89/1 487/83/1 488/85/1
f 489/92/1 490/91/1 491/85/1 492/86/1
f 493/93/1 494/94/1 495/90/1 496/89/1
f 497/95/1 498/93/1 499/89/1 500/91/1
f 501/96/1 502/95/1 503/91/1 504/92/1
f 505/97/1 506/98/1 507/94/1 508/93/1
f 509/99/1 510/97/1 511/93/1 512/95/1
f 513/100/1 514/99/1 515/95/1 516/96/1

